<svg version="1.1" id="Layer_1" xmlns="http://www.w3.org/2000/svg" xmlns:xlink="http://www.w3.org/1999/xlink" x="0px" y="0px"
	 width="100%" viewBox="0 0 380 700" enable-background="new 0 0 380 700" xml:space="preserve">
<path fill="#131313" opacity="1.000000" stroke="none" 
	d="
M380.726379,229.775391 
	C381.000000,238.687561 381.000000,247.375122 381.000000,256.531342 
	C372.056000,263.068329 362.401581,267.931244 353.118774,273.424866 
	C337.398804,282.728027 321.447296,291.632477 309.453369,298.743835 
	C328.794861,287.535950 351.874786,274.157013 375.021271,260.893616 
	C376.675018,259.945984 378.245453,258.310394 380.738739,259.767578 
	C381.000000,266.687653 381.000000,273.375275 381.000000,280.531464 
	C372.449493,287.089783 363.018951,291.703949 354.031555,297.061127 
	C341.602142,304.469971 329.002533,311.588196 316.504150,318.879822 
	C335.291656,307.997406 354.045013,297.055511 372.884949,286.264893 
	C375.175201,284.953156 377.208374,282.349243 380.737976,283.768219 
	C381.000000,290.687653 381.000000,297.375275 381.000000,304.531464 
	C375.719086,309.650818 369.218201,312.329742 363.270569,315.894379 
	C350.755493,323.395233 338.037628,330.551605 325.369019,337.790253 
	C342.093842,328.239044 358.794525,318.646240 375.408813,308.902924 
	C376.929260,308.011261 378.437225,306.704590 380.733154,307.771942 
	C381.000000,314.687653 381.000000,321.375275 381.000000,328.531464 
	C375.518311,334.560181 368.119507,337.078949 361.662750,341.085938 
	C353.624451,346.074463 345.373260,350.728485 337.114716,355.355774 
	C350.282196,347.994843 363.108612,340.041321 376.368347,332.843201 
	C377.614166,332.166870 378.754944,330.870361 380.732422,331.775146 
	C381.000000,339.020966 381.000000,346.041901 381.000000,353.531433 
	C370.144989,360.721741 358.829559,366.649017 350.088165,371.936676 
	C357.500519,367.631195 367.152405,362.109283 376.822540,356.619446 
	C377.931183,355.990082 378.958344,354.903992 380.731750,355.774292 
	C381.000000,380.020905 381.000000,404.041779 381.000000,428.531342 
	C375.042145,434.469299 367.555786,437.504639 360.719147,441.539398 
	C334.082520,457.259430 307.170410,472.508698 280.471252,488.125031 
	C274.450470,491.646576 268.535187,495.392548 264.106415,497.512848 
	C286.475769,484.580994 310.647675,470.607727 334.806458,456.611633 
	C348.335449,448.773804 361.861481,440.930695 375.396851,433.104095 
	C376.897430,432.236450 378.412323,430.878082 380.728516,431.774048 
	C381.000000,438.687653 381.000000,445.375275 381.000000,452.531464 
	C376.451233,457.871429 370.187500,460.058807 364.639374,463.337982 
	C334.140472,481.364014 303.360016,498.906586 272.754150,516.749634 
	C292.993530,504.952301 313.281036,493.238068 333.555481,481.501190 
	C347.658875,473.336761 361.653778,464.982605 375.911041,457.086884 
	C377.285553,456.325714 378.553436,454.885193 380.729248,455.775940 
	C381.000000,463.020966 381.000000,470.041901 381.000000,477.531433 
	C348.439941,497.187866 315.629944,515.946106 287.997467,532.081604 
	C302.675659,523.666748 322.262604,512.166870 341.927002,500.800232 
	C353.269104,494.244110 364.566864,487.610870 375.962799,481.148499 
	C377.342102,480.366364 378.547607,478.902100 380.730713,479.776001 
	C381.000000,488.687561 381.000000,497.375122 381.000000,506.531342 
	C371.529358,513.502441 361.203949,518.562195 351.411346,524.523865 
	C343.887451,529.104431 336.157501,533.340149 328.586853,537.844238 
	C344.478058,528.580566 360.373566,519.324402 376.304810,510.129883 
	C377.570190,509.399597 378.911041,508.480713 380.738983,509.766968 
	C381.000000,516.687622 381.000000,523.375305 381.000000,530.531494 
	C370.864349,537.891785 359.944000,543.464417 349.449707,549.753601 
	C345.900909,551.880432 342.187256,553.729309 338.748962,556.046204 
	C341.956207,553.814026 345.424011,552.015869 348.821228,550.111816 
	C357.919464,545.012390 366.762054,539.469971 375.945343,534.520569 
	C377.356415,533.760071 378.649963,532.400330 380.739075,533.767944 
	C381.000000,540.687622 381.000000,547.375305 381.000000,554.531494 
	C374.755219,560.304382 367.155853,563.424072 360.313232,567.770081 
	C356.427612,570.237976 352.405334,572.537537 349.374969,574.023132 
	C357.169128,569.775635 365.811981,564.507446 374.579590,559.456848 
	C376.399445,558.408569 378.030243,556.716431 380.733826,557.771851 
	C381.000000,564.687622 381.000000,571.375305 381.000000,578.531494 
	C374.766815,584.912109 366.584229,587.667419 360.774536,591.661194 
	C365.655670,589.339355 371.152435,585.304199 377.254181,582.349121 
	C378.281830,581.851501 379.190887,580.984131 380.735901,581.775635 
	C381.000000,589.020935 381.000000,596.041931 381.000000,603.531433 
	C377.731964,606.252380 374.225403,608.101379 371.131439,609.789124 
	C374.171875,608.899170 376.539001,605.530090 380.738586,605.776489 
	C381.000000,636.282593 380.901733,666.565979 381.122223,696.846924 
	C381.150330,700.706726 380.014954,701.084167 376.666229,701.077393 
	C322.756744,700.967834 268.847015,701.000000 214.468658,701.000000 
	C212.632278,697.531372 215.901871,697.229431 217.565460,696.251709 
	C231.004959,688.353149 244.536636,680.610718 258.006256,672.763000 
	C278.206360,660.994019 298.508545,649.401611 318.672791,637.569641 
	C324.534332,634.130188 330.344757,630.569153 334.532135,628.447510 
	C313.324005,640.870117 290.170502,654.148865 267.102264,667.576416 
	C251.339020,676.751770 235.541168,685.874817 219.708191,694.933411 
	C216.837402,696.575989 213.785614,697.980408 211.249115,700.748047 
	C197.312439,701.000000 183.624878,701.000000 169.468658,701.000000 
	C167.853973,696.591614 172.391525,697.360352 173.777924,695.595581 
	C170.482330,697.084778 167.520493,699.881836 163.268738,700.787842 
	C151.645767,701.000000 140.291550,701.000000 128.468658,701.000000 
	C126.458282,698.394043 128.523605,697.417603 130.193726,696.456177 
	C141.321579,690.050537 152.420868,683.595642 161.386246,678.399963 
	C151.465820,684.416809 138.972778,690.946716 127.126060,698.569824 
	C125.369080,699.700378 123.335220,699.709412 121.275665,700.784790 
	C109.645775,701.000000 98.291542,701.000000 86.468658,701.000000 
	C84.468674,698.390625 86.522705,697.399170 88.205704,696.451294 
	C108.289337,685.140320 128.052505,673.273193 148.134323,661.960449 
	C149.872864,660.981140 151.378662,659.629089 152.998428,658.996643 
	C133.270477,670.541565 113.233780,682.103699 93.177757,693.629761 
	C88.781158,696.156372 84.848289,699.756226 79.276627,700.786743 
	C67.645775,701.000000 56.291546,701.000000 44.468658,701.000000 
	C42.528873,698.648376 44.262550,697.771851 45.904556,696.836304 
	C69.872124,683.180786 93.649254,669.195557 117.551315,655.426270 
	C126.042229,650.534973 134.607193,645.770325 140.472137,642.152039 
	C122.722862,652.372803 102.511093,664.150330 82.237801,675.821411 
	C70.433662,682.616821 58.730259,689.587708 46.865074,696.277100 
	C44.152679,697.806335 41.868408,700.190918 38.279659,700.786011 
	C27.619688,701.000000 17.220381,700.627686 6.867017,701.155884 
	C1.629699,701.423096 -0.058872,699.936340 1.000000,694.497925 
	C10.084109,687.851440 19.862753,682.881836 29.305098,677.341675 
	C51.777691,664.156006 74.416626,651.257385 92.765091,640.617188 
	C71.993225,652.575500 47.059494,667.014465 22.110104,681.426392 
	C16.787750,684.500854 11.494853,687.627319 6.136730,690.637939 
	C4.755162,691.414185 3.311389,692.613098 1.262400,691.232117 
	C1.000000,684.312378 1.000000,677.624695 1.000000,670.468506 
	C10.973620,663.070251 21.800121,657.569641 32.246151,651.435791 
	C50.222858,640.879822 68.340736,630.564392 86.345551,620.055054 
	C60.369270,635.212219 34.286308,650.185425 8.256002,665.249207 
	C6.276052,666.394958 4.428550,668.786316 1.263319,667.231567 
	C1.000000,660.312378 1.000000,653.624695 1.000000,646.468506 
	C6.665619,641.011963 13.578648,637.983582 20.006006,634.259277 
	C38.971878,623.269409 57.880367,612.175476 72.697205,603.808167 
	C53.497089,614.934692 29.963310,628.365173 6.600627,642.092224 
	C5.077616,642.987122 3.565989,644.293274 1.266597,643.227356 
	C1.000000,636.312378 1.000000,629.624695 1.000000,622.468506 
	C6.034832,616.692688 12.921718,614.253967 19.011486,610.641235 
	C34.278339,601.584045 49.735970,592.843628 60.014439,586.865906 
	C45.423241,595.272217 25.856974,606.790222 6.067974,617.919861 
	C4.705164,618.686340 3.440509,620.130676 1.268298,619.225098 
	C1.000000,612.312378 1.000000,605.624695 1.000000,598.468506 
	C4.118415,594.086365 8.846393,592.563110 12.930415,590.136658 
	C26.888592,581.843689 40.965611,573.750366 55.037163,565.649841 
	C38.969303,574.877686 22.983540,584.247559 6.940907,593.519043 
	C5.274214,594.482300 3.798195,596.107117 1.267270,595.227051 
	C1.000000,586.312439 1.000000,577.624817 1.000000,568.468628 
	C3.504813,565.468079 7.054283,564.641113 9.481861,562.818237 
	C7.080565,563.580566 5.041252,566.688660 1.252289,565.229248 
	C1.000000,558.312378 1.000000,551.624695 1.000000,544.468506 
	C1.831760,543.258728 2.339108,542.462830 1.216605,541.214417 
	C1.000000,518.979126 1.000000,496.958221 1.000000,474.468658 
	C4.212492,469.639771 9.354183,468.070129 13.732327,465.512054 
	C38.520016,451.028931 63.396027,436.696777 88.198296,422.237091 
	C98.365150,416.309875 108.560562,410.430054 116.353615,405.995605 
	C105.714211,412.367065 92.504204,419.901306 79.334236,427.496063 
	C54.892532,441.590820 30.579569,455.908234 6.048547,469.847687 
	C4.668617,470.631836 3.459428,472.092133 1.272371,471.224487 
	C1.000000,462.312439 1.000000,453.624878 1.000000,444.468658 
	C10.451905,437.512878 20.676527,432.326477 30.541529,426.538330 
	C45.048733,418.026489 59.585472,409.562286 70.057068,403.590332 
	C51.515736,414.379608 28.800507,427.472534 6.130842,440.643890 
	C4.765716,441.437042 3.308778,442.622437 1.261638,441.232880 
	C1.000000,434.312347 1.000000,427.624725 1.000000,420.468536 
	C9.841689,413.480438 19.760967,408.742462 29.154787,403.143799 
	C40.759449,396.227478 52.507133,389.534485 61.644104,384.321472 
	C45.741146,393.591217 27.203238,404.288727 8.671560,414.996155 
	C6.545850,416.224365 4.610585,418.735718 1.261932,417.231934 
	C1.000000,410.312347 1.000000,403.624725 1.000000,396.468536 
	C6.441495,391.271118 13.057373,388.432312 19.165699,384.785980 
	C30.971310,377.738708 42.986118,371.048828 50.659786,366.514862 
	C39.071388,373.295990 23.188625,382.311584 7.426342,391.537018 
	C5.611826,392.598999 3.973631,394.282623 1.266637,393.228058 
	C1.000000,386.312347 1.000000,379.624725 1.000000,372.468536 
	C3.943701,368.098785 8.606153,366.713257 12.545378,364.339752 
	C22.645159,358.254333 32.936501,352.484863 40.525158,348.005066 
	C30.619144,353.735962 18.239380,361.145874 5.628651,368.154907 
	C4.391285,368.842651 3.243740,370.132172 1.266415,369.224731 
	C1.000000,362.312347 1.000000,355.624725 1.000000,348.468536 
	C4.496717,343.480591 9.961580,341.892517 14.575560,339.088623 
	C20.366253,335.569611 26.211287,332.114838 30.498779,329.785004 
	C23.062370,334.187775 13.913089,339.434387 4.737839,344.636017 
	C3.744288,345.199249 2.813502,346.021118 1.265429,345.224670 
	C1.000000,321.312439 1.000000,297.624878 1.000000,273.468658 
	C4.561376,268.532257 9.951475,266.752014 14.634568,264.046173 
	C48.764507,244.326157 82.776627,224.401611 117.011826,204.863708 
	C117.586151,204.535950 118.073059,204.059708 118.673599,203.764389 
	C100.602478,214.276917 82.508537,224.750443 64.420418,235.233322 
	C45.714420,246.074326 26.978697,256.864380 8.253961,267.673157 
	C6.168165,268.877167 4.292687,270.774597 1.271968,270.224426 
	C1.000000,263.312347 1.000000,256.624725 1.000000,249.468536 
	C4.575563,244.027863 10.413797,242.333328 15.345155,239.466888 
	C46.499920,221.357437 77.631882,203.207565 101.005539,189.732117 
	C74.616211,205.061401 40.362602,224.881851 6.151412,244.775391 
	C4.680948,245.630447 3.260571,246.520920 1.262970,245.232452 
	C1.000000,238.312363 1.000000,231.624710 1.000000,224.468536 
	C9.570019,217.957031 18.960012,213.284775 27.976660,207.996750 
	C50.624935,194.714127 73.427078,181.693466 96.109039,168.466721 
	C96.970940,167.964111 97.898010,167.577820 98.737923,167.032623 
	C77.351578,179.386139 55.958508,191.728012 34.609005,204.145279 
	C25.128582,209.659256 15.616605,215.118835 6.137822,220.635803 
	C4.770056,221.431885 3.312003,222.611542 1.262258,221.231827 
	C1.000000,212.645767 1.000000,204.291534 1.000000,195.468658 
	C6.722738,190.084549 13.656172,187.116974 20.053629,183.305359 
	C31.113264,176.716003 42.270535,170.284805 53.453991,163.902832 
	C37.304058,173.141815 21.314735,182.657166 5.162536,191.892975 
	C3.938108,192.593109 2.903601,193.304062 1.261403,192.232498 
	C1.000000,185.312363 1.000000,178.624710 1.000000,171.468536 
	C6.795882,165.952026 13.844140,162.888565 20.362480,159.018890 
	C28.325945,154.291336 36.328117,149.603180 42.870674,145.959900 
	C31.992249,152.412735 19.397106,159.449966 6.999257,166.829269 
	C5.343575,167.814743 3.762624,169.294968 1.266420,168.228210 
	C1.000000,161.312363 1.000000,154.624710 1.000000,147.468536 
	C4.080023,142.985931 8.944497,141.630722 12.998835,139.102463 
	C19.341734,135.147079 25.894468,131.521133 30.914442,128.549240 
	C23.281563,132.930496 14.410942,138.460052 5.196426,143.394821 
	C4.070878,143.997604 3.038942,145.095245 1.267030,144.224838 
	C1.000000,137.312347 1.000000,130.624710 1.000000,123.468536 
	C5.061938,117.881264 11.443275,116.275505 16.576622,112.774139 
	C18.337656,111.572968 20.387079,110.777336 21.320211,109.973061 
	C16.646568,113.003342 10.748941,115.797989 5.260534,119.296654 
	C4.093356,120.040672 2.803977,120.305122 1.258027,119.232742 
	C1.000000,112.312355 1.000000,105.624710 1.000000,98.468536 
	C4.212109,95.137497 8.412243,93.873169 11.322995,91.559113 
	C8.295525,92.487282 6.007342,96.706596 1.258852,95.233643 
	C1.000000,65.050751 1.099257,35.100773 0.877730,5.153163 
	C0.849182,1.293812 1.984383,0.915648 5.333522,0.922569 
	C58.576401,1.032586 111.819572,1.000000 165.531342,1.000000 
	C167.596130,4.155575 164.649429,4.731153 163.057739,5.644834 
	C147.767990,14.421639 132.513702,23.260469 117.270638,32.116989 
	C96.881302,43.963600 76.366814,55.593945 56.065884,67.595085 
	C52.077168,69.953064 48.151737,72.504044 44.826809,73.891068 
	C58.268700,66.501534 72.375763,58.124683 86.567696,49.903889 
	C111.737968,35.323792 136.948318,20.812767 162.108231,6.214669 
	C164.424271,4.870872 166.708328,3.531952 168.751343,1.251301 
	C183.020889,1.000000 197.041794,1.000000 211.531342,1.000000 
	C213.581863,5.288238 208.839493,4.656149 207.905624,6.537733 
	C211.018692,4.598236 214.259415,2.021811 218.730011,1.212208 
	C230.354233,1.000000 241.708450,1.000000 253.531342,1.000000 
	C255.601410,4.133331 252.670502,4.700395 251.091507,5.622654 
	C240.374374,11.882299 229.625946,18.089550 218.882874,24.305470 
	C230.886505,17.315622 242.981720,10.481815 254.892151,3.335298 
	C256.687561,2.258011 258.546326,1.906346 260.724976,1.213579 
	C272.354218,1.000000 283.708466,1.000000 295.531342,1.000000 
	C297.445587,3.819888 295.012756,4.336679 293.411102,5.285066 
	C272.805267,17.486382 252.053711,29.436993 231.283081,41.354530 
	C230.423141,41.847946 229.617111,42.424683 228.762741,42.924850 
	C251.504913,29.445841 274.702850,16.746588 297.214600,2.873663 
	C298.525482,2.065841 300.101074,2.095036 301.724304,1.214465 
	C313.687561,1.000000 325.375122,1.000000 337.531342,1.000000 
	C339.511688,3.660511 337.051910,4.056849 335.665131,4.904207 
	C324.328613,11.831239 312.712067,18.279493 301.230286,24.958633 
	C281.700348,36.319523 262.108795,47.574184 242.583221,58.942688 
	C241.759552,59.422264 240.902237,59.865524 240.939301,59.849766 
	C260.656860,48.481121 281.200836,36.554928 301.758331,24.651894 
	C314.115112,17.497194 326.523590,10.431640 338.804321,3.146460 
	C340.265198,2.279827 341.796448,1.725633 343.722290,1.212618 
	C354.706146,1.000000 365.423035,1.277915 376.113281,0.865384 
	C380.486481,0.696624 381.785370,1.979160 381.000000,6.500528 
	C377.241699,11.463219 371.773102,13.373059 366.949921,16.167864 
	C340.127136,31.710402 313.377014,47.380058 286.409454,62.672199 
	C285.981995,62.914604 285.649902,63.315842 285.209686,63.548008 
	C299.074066,55.518291 312.896454,47.416058 326.771454,39.405369 
	C342.429108,30.365486 358.106964,21.360502 373.764740,12.320703 
	C375.845428,11.119455 377.715027,9.216905 380.730896,9.776064 
	C381.000000,17.020948 381.000000,24.041895 381.000000,31.531422 
	C371.532349,38.149570 361.521606,43.371933 351.796478,49.082218 
	C333.314789,59.934078 314.695038,70.549431 304.881744,76.273491 
	C322.666260,65.843719 349.366394,50.710857 375.809418,35.135185 
	C377.232391,34.297016 378.756531,33.447086 380.737732,34.767357 
	C381.000000,41.687645 381.000000,48.375290 381.000000,55.531467 
	C371.440704,62.664730 361.048859,67.936661 351.029144,73.826546 
	C335.977722,82.674202 320.842285,91.380760 310.706451,97.232506 
	C328.087769,87.125397 350.459290,74.148506 372.884155,61.264984 
	C375.172089,59.950504 377.207825,57.352356 380.737213,58.768044 
	C381.000000,65.687645 381.000000,72.375290 381.000000,79.531464 
	C376.933563,84.091103 371.551605,86.142746 366.707611,88.969597 
	C349.362579,99.091713 331.917877,109.045242 318.382446,116.877487 
	C334.633789,107.378265 354.891968,95.928871 374.978699,84.181587 
	C376.650269,83.204002 378.228363,81.706902 380.733826,82.772339 
	C381.000000,89.687645 381.000000,96.375290 381.000000,103.531464 
	C375.395050,109.065552 368.392578,111.887337 362.010956,115.686386 
	C350.202515,122.716057 338.334717,129.651688 331.133545,133.662170 
	C338.202484,129.663925 349.923065,122.718071 361.727295,115.916061 
	C366.749939,113.021820 371.740753,110.071678 376.810455,107.258873 
	C377.965973,106.617752 379.041748,105.703087 380.738159,106.768967 
	C381.000000,115.354233 381.000000,123.708466 381.000000,132.531342 
	C378.876984,136.479187 374.739227,137.023575 372.470306,139.050568 
	C374.797852,138.300476 376.929688,135.289185 380.740540,135.777100 
	C381.000000,143.020950 381.000000,150.041901 381.000000,157.531433 
	C380.508728,158.428162 380.254730,158.921539 380.784119,159.785446 
	C381.000000,182.354233 381.000000,204.708450 381.000000,227.531342 
	C361.425720,239.638763 341.587494,250.822449 321.907501,262.278595 
	C301.403107,274.214661 280.820679,286.016296 260.343475,297.999023 
	C278.396210,287.447235 296.498199,276.979492 314.603333,266.518494 
	C335.038696,254.711105 355.419830,242.809143 375.944733,231.157288 
	C377.326935,230.372604 378.536194,228.910782 380.726379,229.775391 
z"/>
<path fill="#E3E3E3" opacity="1.000000" stroke="none" 
	d="
M381.000000,431.625000 
	C378.890198,431.239349 377.745697,433.064728 376.317780,433.889862 
	C338.081940,455.984619 299.886993,478.150146 261.654419,500.250641 
	C260.111816,501.142365 258.723846,503.197327 255.442673,501.170502 
	C297.409698,476.942596 338.854156,453.016357 380.649292,429.045044 
	C381.000000,429.750000 381.000000,430.500000 381.000000,431.625000 
z"/>
<path fill="#E4E4E4" opacity="1.000000" stroke="none" 
	d="
M168.625000,1.000000 
	C169.380707,3.149621 168.037384,4.066145 166.399918,5.009318 
	C124.809181,28.965425 83.242752,52.963730 41.648911,76.914436 
	C40.626678,77.503067 39.644581,78.824661 38.053707,77.842361 
	C38.633873,75.517357 40.886799,75.159370 42.468014,74.241264 
	C82.457329,51.021889 122.496452,27.888290 162.495422,4.685501 
	C164.007248,3.808517 165.985809,3.399621 166.366180,1.230575 
	C166.750000,1.000000 167.500000,1.000000 168.625000,1.000000 
z"/>
<path fill="#E1E1E1" opacity="1.000000" stroke="none" 
	d="
M1.000000,270.375000 
	C2.861304,270.224182 4.043868,268.844299 5.434442,268.041534 
	C43.725891,245.936096 81.998993,223.798904 120.277008,201.670212 
	C121.702332,200.846222 123.146332,200.054520 124.842056,199.101395 
	C125.756622,202.390396 122.982826,202.509598 121.621262,203.301071 
	C93.023857,219.924805 64.371628,236.454178 35.734726,253.009979 
	C24.368132,259.581299 13.012530,266.171661 1.325963,272.876678 
	C1.000000,272.250000 1.000000,271.500000 1.000000,270.375000 
z"/>
<path fill="#E5E5E5" opacity="1.000000" stroke="none" 
	d="
M211.375000,701.000000 
	C210.534805,698.880249 212.109344,698.181152 213.524643,697.362244 
	C255.331467,673.171509 297.136444,648.977661 338.950165,624.798889 
	C339.754456,624.333862 340.660004,624.043945 341.998260,623.464417 
	C341.927795,626.355774 339.798492,626.564026 338.439087,627.351501 
	C298.163300,650.681091 257.865021,673.971924 217.601746,697.323120 
	C216.079910,698.205688 214.134659,698.649658 213.649933,700.755249 
	C213.250000,701.000000 212.500000,701.000000 211.375000,701.000000 
z"/>
<path fill="#E4E4E4" opacity="1.000000" stroke="none" 
	d="
M381.000000,455.625000 
	C379.134796,455.753693 377.956268,457.144104 376.569397,457.945190 
	C341.609436,478.139099 306.671906,498.371826 271.715027,518.571106 
	C270.350037,519.359863 269.118256,520.548462 267.014404,519.933105 
	C278.745697,511.460327 291.563324,504.716034 303.997711,497.374878 
	C316.587158,489.942139 329.268890,482.665619 341.915863,475.330444 
	C354.706726,467.911804 367.504547,460.505096 380.649658,453.046570 
	C381.000000,453.750000 381.000000,454.500000 381.000000,455.625000 
z"/>
<path fill="#E4E4E4" opacity="1.000000" stroke="none" 
	d="
M381.000000,229.666672 
	C377.791534,230.523026 375.362457,232.654755 372.686920,234.196503 
	C334.775116,256.042847 296.911652,277.973083 259.031677,299.874756 
	C257.824097,300.572998 256.565582,301.183228 255.318649,301.840881 
	C254.248596,299.829987 255.792343,299.490723 256.651031,298.993561 
	C297.903778,275.108276 339.174835,251.254593 380.721924,227.698700 
	C381.000000,228.444443 381.000000,228.888901 381.000000,229.666672 
z"/>
<path fill="#E3E3E3" opacity="1.000000" stroke="none" 
	d="
M1.000000,245.399994 
	C3.264940,246.874130 4.482621,244.311127 5.797160,243.554688 
	C40.462246,223.606934 75.038963,203.505661 109.666054,183.491653 
	C111.191505,182.609940 112.606277,180.814697 116.123283,182.179199 
	C77.389565,204.703873 39.518593,226.726852 1.323809,248.874908 
	C1.000000,247.933334 1.000000,246.866653 1.000000,245.399994 
z"/>
<path fill="#E4E4E4" opacity="1.000000" stroke="none" 
	d="
M1.000000,471.375000 
	C6.790596,468.909119 11.774661,465.317291 17.046282,462.279968 
	C51.533173,442.410004 85.974243,422.460510 120.435768,402.546509 
	C121.803078,401.756409 123.015160,400.570496 125.440308,401.800537 
	C84.178391,425.789429 42.916470,449.778320 1.327275,473.883606 
	C1.000000,473.250000 1.000000,472.500000 1.000000,471.375000 
z"/>
<path fill="#E4E4E4" opacity="1.000000" stroke="none" 
	d="
M38.428463,701.000000 
	C38.371346,699.219421 40.136700,699.091003 41.311169,698.408813 
	C75.716827,678.422241 110.160255,658.500610 144.601379,638.575195 
	C145.555466,638.023193 146.550705,637.542358 147.859497,636.853149 
	C148.319199,639.819458 146.031052,640.081055 144.699539,640.854004 
	C112.370651,659.619934 80.002853,678.318909 47.678638,697.092834 
	C46.055237,698.035706 43.824364,698.367737 43.587616,700.808716 
	C42.285641,701.000000 40.571285,701.000000 38.428463,701.000000 
z"/>
<path fill="#E4E4E4" opacity="1.000000" stroke="none" 
	d="
M343.571533,1.000000 
	C331.267914,9.358479 317.810913,16.486362 304.662842,24.137247 
	C282.725525,36.902580 260.731934,49.571270 238.759521,62.276268 
	C237.343506,63.095047 235.905807,63.876362 234.226013,64.816208 
	C233.567490,61.602028 236.277451,61.488117 237.681091,60.672199 
	C269.872192,41.959976 302.118835,23.343279 334.325806,4.658248 
	C335.859589,3.768399 337.784271,3.312678 338.340393,1.251686 
	C339.714355,1.000000 341.428711,1.000000 343.571533,1.000000 
z"/>
<path fill="#E6E6E6" opacity="1.000000" stroke="none" 
	d="
M1.000000,221.375000 
	C3.024351,222.718628 4.164073,220.449707 5.361904,219.759766 
	C36.672508,201.725021 67.910362,183.563995 99.181396,165.460419 
	C100.677238,164.594437 102.002632,163.230026 103.960220,163.252914 
	C104.950134,165.259140 103.216095,165.564911 102.211311,166.146515 
	C68.718109,185.533951 35.210018,204.895645 1.352052,224.130554 
	C1.000000,223.250000 1.000000,222.500000 1.000000,221.375000 
z"/>
<path fill="#E5E5E5" opacity="1.000000" stroke="none" 
	d="
M1.000000,691.375000 
	C3.261454,692.894287 4.485468,690.325378 5.801705,689.571899 
	C36.507298,671.995056 67.121559,654.258728 97.785233,636.608398 
	C99.229767,635.776855 100.469803,634.037598 102.499382,634.748535 
	C103.228210,635.987305 102.208412,636.359680 101.615280,636.702209 
	C68.316856,655.929565 35.001682,675.127930 1.344075,694.164551 
	C1.000000,693.250000 1.000000,692.500000 1.000000,691.375000 
z"/>
<path fill="#E3E3E3" opacity="1.000000" stroke="none" 
	d="
M381.000000,479.666687 
	C375.210999,482.096069 370.228302,485.691071 364.955231,488.727386 
	C337.362396,504.615997 309.826141,520.602844 282.250885,536.522034 
	C280.851593,537.329834 279.557983,538.859192 276.179321,537.763306 
	C311.622406,517.242371 346.034058,497.318573 380.722870,477.697388 
	C381.000000,478.444458 381.000000,478.888885 381.000000,479.666687 
z"/>
<path fill="#E3E3E3" opacity="1.000000" stroke="none" 
	d="
M381.000000,9.625000 
	C379.140472,9.767145 377.957672,11.142068 376.566589,11.942124 
	C345.746460,29.667629 314.946472,47.428150 284.132416,65.164192 
	C282.636047,66.025459 281.259796,67.335724 278.816406,66.085159 
	C312.651550,46.449306 346.486725,26.813456 380.660950,7.088801 
	C381.000000,7.750000 381.000000,8.500000 381.000000,9.625000 
z"/>
<path fill="#E2E2E2" opacity="1.000000" stroke="none" 
	d="
M381.000000,34.625000 
	C378.985291,33.239975 377.840424,35.501450 376.628235,36.195568 
	C349.369446,51.804321 322.179626,67.533501 294.962036,83.214287 
	C293.450806,84.084953 292.117218,85.438599 290.147430,85.397781 
	C289.288177,83.773201 290.506714,83.335052 291.497559,82.762878 
	C321.145966,65.641266 350.793213,48.517601 380.720337,31.697136 
	C381.000000,32.750000 381.000000,33.500000 381.000000,34.625000 
z"/>
<path fill="#E3E3E3" opacity="1.000000" stroke="none" 
	d="
M1.000000,667.375000 
	C3.027641,668.151733 4.175002,666.268066 5.494536,665.509216 
	C32.726822,649.850098 59.907288,634.100830 87.117920,618.403931 
	C88.572601,617.564758 89.912849,616.208740 91.670776,616.329651 
	C92.699409,618.131775 91.325485,618.447510 90.618652,618.856995 
	C60.993584,636.017883 31.346560,653.140808 1.351145,670.134277 
	C1.000000,669.250000 1.000000,668.500000 1.000000,667.375000 
z"/>
<path fill="#E5E5E5" opacity="1.000000" stroke="none" 
	d="
M1.000000,643.375000 
	C2.880972,643.714844 3.978021,642.139343 5.265890,641.396667 
	C28.996456,627.712463 52.689796,613.963684 76.392342,600.230896 
	C77.398132,599.648193 78.442001,599.127380 79.421860,598.504944 
	C80.215469,598.000732 81.083069,597.788330 81.612556,598.595947 
	C82.212875,599.511719 81.362968,600.066833 80.660225,600.516418 
	C80.101501,600.873901 79.521309,601.198364 78.946327,601.529968 
	C53.205704,616.376770 27.464607,631.222778 1.361787,646.034424 
	C1.000000,645.250000 1.000000,644.500000 1.000000,643.375000 
z"/>
<path fill="#E4E4E4" opacity="1.000000" stroke="none" 
	d="
M79.437492,701.000000 
	C93.542007,692.415100 108.067635,683.802307 122.631592,675.254822 
	C132.930130,669.210754 143.253342,663.207214 153.640167,657.317139 
	C155.031433,656.528198 157.032043,654.079712 158.192215,655.967102 
	C159.410355,657.948853 156.326447,658.397217 154.987900,659.175842 
	C133.053009,671.934814 111.063965,684.600647 89.122589,697.348511 
	C87.653328,698.202148 85.535339,698.434998 85.569664,700.823059 
	C83.958336,701.000000 81.916664,701.000000 79.437492,701.000000 
z"/>
<path fill="#E3E3E3" opacity="1.000000" stroke="none" 
	d="
M381.000000,58.625000 
	C378.976257,57.855152 377.833557,59.732212 376.514221,60.490532 
	C352.635315,74.215660 328.812836,88.039017 304.946075,101.785385 
	C303.538879,102.595863 302.233398,104.235313 298.792969,102.792900 
	C326.552216,86.774178 353.420898,71.269371 380.644775,55.882286 
	C381.000000,56.750000 381.000000,57.500000 381.000000,58.625000 
z"/>
<path fill="#E3E3E3" opacity="1.000000" stroke="none" 
	d="
M301.571533,1.000000 
	C301.848358,2.470157 300.461060,2.557367 299.545471,3.090276 
	C275.571381,17.044218 251.585648,30.978270 227.569016,44.858795 
	C226.382950,45.544292 225.256073,46.948662 223.206390,45.929531 
	C223.633163,43.892326 225.576309,43.545967 226.954575,42.743279 
	C248.628906,30.120275 270.334503,17.550915 291.998260,4.909837 
	C293.664398,3.937637 295.768951,3.468055 296.359924,1.237856 
	C297.714355,1.000000 299.428711,1.000000 301.571533,1.000000 
z"/>
<path fill="#E4E4E4" opacity="1.000000" stroke="none" 
	d="
M381.000000,259.625000 
	C378.986420,258.212219 377.853516,260.496155 376.645172,261.187256 
	C352.742523,274.857971 328.910675,288.652374 305.055176,302.405579 
	C303.570190,303.261719 302.008881,303.985504 300.483093,304.770874 
	C300.201691,304.244141 299.920319,303.717407 299.638916,303.190674 
	C326.530548,287.681976 353.422211,272.173309 380.656921,256.832306 
	C381.000000,257.750000 381.000000,258.500000 381.000000,259.625000 
z"/>
<path fill="#E4E4E4" opacity="1.000000" stroke="none" 
	d="
M1.000000,441.375000 
	C3.015527,442.777222 4.152272,440.497528 5.359696,439.805573 
	C28.545536,426.517456 51.655125,413.096344 74.803604,399.742828 
	C76.291504,398.884491 77.578117,397.266083 81.227562,398.360046 
	C54.051907,414.066498 27.869183,429.199097 1.343230,444.165833 
	C1.000000,443.250000 1.000000,442.500000 1.000000,441.375000 
z"/>
<path fill="#E3E3E3" opacity="1.000000" stroke="none" 
	d="
M381.000000,82.625000 
	C379.119446,82.292442 378.021881,83.855186 376.723267,84.599731 
	C356.262054,96.330795 335.846252,108.141098 315.375214,119.854927 
	C314.060303,120.607338 312.888702,122.070381 310.283966,120.308350 
	C333.614929,106.845047 356.945892,93.381737 380.638428,79.959213 
	C381.000000,80.750000 381.000000,81.500000 381.000000,82.625000 
z"/>
<path fill="#E4E4E4" opacity="1.000000" stroke="none" 
	d="
M1.000000,417.375000 
	C2.918711,418.521057 3.900084,416.410919 5.048377,415.750488 
	C24.882326,404.343903 44.652313,392.826111 64.438889,381.337097 
	C65.441971,380.754669 66.469009,380.213501 67.484108,379.651733 
	C68.107941,379.306488 68.710770,379.192749 69.217247,379.842896 
	C70.015945,380.868195 69.009926,381.263062 68.481064,381.755188 
	C68.127907,382.083832 67.614120,382.235809 67.182526,382.484772 
	C45.355682,395.075714 23.529955,407.668640 1.352053,420.130676 
	C1.000000,419.250000 1.000000,418.500000 1.000000,417.375000 
z"/>
<path fill="#E3E3E3" opacity="1.000000" stroke="none" 
	d="
M1.000000,619.375000 
	C2.864315,619.238342 4.043673,617.849670 5.434709,617.050354 
	C25.607981,605.457764 45.754879,593.819214 65.917213,582.207458 
	C67.437477,581.331970 69.026520,580.575806 70.583588,579.764160 
	C70.900330,580.321106 71.217064,580.878113 71.533806,581.435120 
	C48.257187,594.932007 24.980564,608.428894 1.351972,621.962891 
	C1.000000,621.250000 1.000000,620.500000 1.000000,619.375000 
z"/>
<path fill="#E3E3E3" opacity="1.000000" stroke="none" 
	d="
M381.000000,283.625000 
	C379.082611,282.475403 378.096588,284.582825 376.945587,285.242889 
	C356.501160,296.967590 336.123993,308.809540 315.711792,320.590546 
	C314.256073,321.430695 312.892914,322.710358 311.091614,322.662415 
	C310.828217,322.169891 310.564819,321.677368 310.301422,321.184845 
	C333.630798,307.711426 356.960205,294.238007 380.644775,280.882324 
	C381.000000,281.750000 381.000000,282.500000 381.000000,283.625000 
z"/>
<path fill="#E3E3E3" opacity="1.000000" stroke="none" 
	d="
M381.000000,307.625000 
	C379.123260,307.283478 378.021027,308.852112 376.730438,309.589935 
	C359.898132,319.212830 343.111145,328.914978 326.305481,338.584625 
	C324.765991,339.470428 323.176514,340.269531 321.736603,341.041168 
	C321.353973,340.686310 321.195435,340.593018 321.120697,340.454529 
	C321.048981,340.321625 321.016174,340.130371 321.050995,339.985077 
	C321.124908,339.676483 321.162994,339.224609 321.373199,339.102478 
	C340.997894,327.701233 360.637421,316.325531 380.638000,304.974060 
	C381.000000,305.750000 381.000000,306.500000 381.000000,307.625000 
z"/>
<path fill="#E3E3E3" opacity="1.000000" stroke="none" 
	d="
M1.000000,393.375000 
	C2.880286,393.712097 3.975767,392.136719 5.266934,391.396393 
	C21.510153,382.083221 37.700237,372.677429 53.936951,363.352875 
	C55.410851,362.506409 56.736919,361.112335 58.614330,361.185364 
	C58.894104,361.674652 59.173878,362.163940 59.453651,362.653229 
	C40.210129,373.793335 20.966604,384.933441 1.361540,396.036774 
	C1.000000,395.250000 1.000000,394.500000 1.000000,393.375000 
z"/>
<path fill="#E3E3E3" opacity="1.000000" stroke="none" 
	d="
M381.000000,509.625000 
	C379.231964,508.343323 378.189972,510.299255 377.061584,510.947479 
	C360.631287,520.386230 344.252899,529.915222 327.845520,539.393921 
	C326.387604,540.236206 325.040009,541.586243 322.567261,540.077637 
	C341.816498,528.939941 361.065765,517.802246 380.657501,506.832275 
	C381.000000,507.750000 381.000000,508.500000 381.000000,509.625000 
z"/>
<path fill="#E3E3E3" opacity="1.000000" stroke="none" 
	d="
M1.000000,192.375000 
	C2.922274,193.517685 3.900896,191.403381 5.051058,190.742722 
	C21.456793,181.319290 37.782005,171.755783 54.165009,162.292480 
	C55.564789,161.483932 56.866768,159.878632 60.304531,161.174927 
	C40.149986,172.816391 20.934671,183.915359 1.359678,195.007172 
	C1.000000,194.250000 1.000000,193.500000 1.000000,192.375000 
z"/>
<path fill="#E1E1E1" opacity="1.000000" stroke="none" 
	d="
M381.000000,106.625000 
	C378.916351,105.796768 377.812469,107.823997 376.496124,108.578293 
	C359.542847,118.292778 342.664551,128.138153 325.758606,137.935349 
	C324.399872,138.722763 322.976898,139.399368 321.583771,140.127441 
	C321.303101,139.620422 321.022461,139.113388 320.741791,138.606369 
	C340.593811,127.099579 360.445831,115.592796 380.648926,104.043007 
	C381.000000,104.750000 381.000000,105.500000 381.000000,106.625000 
z"/>
<path fill="#E3E3E3" opacity="1.000000" stroke="none" 
	d="
M1.000000,595.375000 
	C2.852927,595.490479 3.982128,594.059753 5.313247,593.290588 
	C22.221912,583.519958 39.096493,573.690308 56.012230,563.932007 
	C57.446743,563.104431 58.750015,561.472839 61.905708,562.671814 
	C41.333324,574.656433 21.494640,586.213623 1.327979,597.885376 
	C1.000000,597.250000 1.000000,596.500000 1.000000,595.375000 
z"/>
<path fill="#E3E3E3" opacity="1.000000" stroke="none" 
	d="
M381.000000,331.625000 
	C378.330536,332.060883 376.519073,333.979736 374.415619,335.175903 
	C361.728821,342.390930 349.115723,349.735504 336.467407,357.018402 
	C335.092133,357.810272 333.649414,358.484985 332.237946,359.214050 
	C331.919373,358.661316 331.600800,358.108612 331.282196,357.555908 
	C347.621185,348.067963 363.960175,338.580017 380.649597,329.046051 
	C381.000000,329.750000 381.000000,330.500000 381.000000,331.625000 
z"/>
<path fill="#E2E2E2" opacity="1.000000" stroke="none" 
	d="
M381.000000,533.625000 
	C379.083130,532.479553 378.098145,534.589539 376.942108,535.244690 
	C363.942596,542.611938 351.032227,550.136292 338.062347,557.556274 
	C336.634521,558.373108 335.321320,559.970154 331.768433,558.672302 
	C348.621460,548.978333 364.455109,539.870789 380.644348,530.881592 
	C381.000000,531.750000 381.000000,532.500000 381.000000,533.625000 
z"/>
<path fill="#E3E3E3" opacity="1.000000" stroke="none" 
	d="
M1.000000,168.375000 
	C2.882973,168.755081 3.959657,167.141113 5.239083,166.409943 
	C18.217680,158.992828 31.130659,151.460922 44.103638,144.033890 
	C45.378235,143.304184 46.527550,141.747894 50.002892,143.087570 
	C33.230797,152.810638 17.476887,161.943436 1.361488,171.038116 
	C1.000000,170.250000 1.000000,169.500000 1.000000,168.375000 
z"/>
<path fill="#E1E1E1" opacity="1.000000" stroke="none" 
	d="
M121.437500,701.000000 
	C136.356018,690.953064 152.680023,682.577759 168.601273,672.860107 
	C169.565125,676.105896 167.080505,676.276855 165.802795,677.029358 
	C154.222733,683.850159 142.559067,690.529175 130.984650,697.359436 
	C129.553345,698.204102 127.324722,698.343140 127.549347,700.840088 
	C125.958336,701.000000 123.916664,701.000000 121.437500,701.000000 
z"/>
<path fill="#E3E3E3" opacity="1.000000" stroke="none" 
	d="
M1.000000,369.375000 
	C4.831698,368.227905 7.758029,365.664337 11.023641,363.814667 
	C21.992464,357.601776 32.847679,351.188507 43.792801,344.933167 
	C45.093586,344.189758 46.220612,342.567932 49.609032,343.945435 
	C33.062576,353.609192 17.383114,362.766541 1.351826,371.961975 
	C1.000000,371.250000 1.000000,370.500000 1.000000,369.375000 
z"/>
<path fill="#E3E3E3" opacity="1.000000" stroke="none" 
	d="
M260.562500,1.000000 
	C245.186432,10.232040 229.372864,19.464083 213.041092,28.998657 
	C212.798248,25.405977 215.143021,25.258627 216.488449,24.465975 
	C227.943695,17.717188 239.481674,11.109034 250.961121,4.400998 
	C252.334854,3.598251 254.164490,3.283802 254.378525,1.221457 
	C256.041656,1.000000 258.083344,1.000000 260.562500,1.000000 
z"/>
<path fill="#E3E3E3" opacity="1.000000" stroke="none" 
	d="
M381.000000,557.625000 
	C379.118073,557.292236 378.024384,558.870667 376.727783,559.608948 
	C365.968323,565.735229 355.262970,571.956604 344.186554,578.354065 
	C344.984741,575.442139 344.986328,575.444885 354.884857,569.657715 
	C359.179840,567.146667 363.456116,564.603516 367.760590,562.109009 
	C371.919342,559.698914 376.103485,557.332520 380.638245,554.973511 
	C381.000000,555.750000 381.000000,556.500000 381.000000,557.625000 
z"/>
<path fill="#E2E2E2" opacity="1.000000" stroke="none" 
	d="
M1.000000,144.375000 
	C11.609850,139.312164 21.076519,132.578339 31.253138,127.117645 
	C33.322968,126.006996 35.169010,124.256416 37.624859,124.037567 
	C37.880150,124.492210 38.135441,124.946846 38.390736,125.401482 
	C26.161617,132.574905 13.932501,139.748322 1.351692,146.960876 
	C1.000000,146.250000 1.000000,145.500000 1.000000,144.375000 
z"/>
<path fill="#E7E7E7" opacity="1.000000" stroke="none" 
	d="
M381.000000,355.666687 
	C370.267731,360.789307 360.651917,367.584351 350.304932,373.060181 
	C347.676422,374.451202 345.442841,376.897797 342.203522,376.905701 
	C341.974335,376.493011 341.745148,376.080292 341.515961,375.667572 
	C354.490051,368.246857 367.464142,360.826111 380.719116,353.702698 
	C381.000000,354.444458 381.000000,354.888885 381.000000,355.666687 
z"/>
<path fill="#E4E4E4" opacity="1.000000" stroke="none" 
	d="
M1.000000,345.375000 
	C12.133398,339.897278 22.247484,332.967010 33.001068,327.186188 
	C34.492744,326.384247 35.750423,324.785675 38.403637,326.300629 
	C26.151398,333.449860 13.899160,340.599091 1.323461,347.874146 
	C1.000000,347.250000 1.000000,346.500000 1.000000,345.375000 
z"/>
<path fill="#E3E3E3" opacity="1.000000" stroke="none" 
	d="
M381.000000,581.625000 
	C373.193665,585.160706 366.425598,590.205444 359.015747,594.080139 
	C357.583130,594.829224 356.348114,596.795410 353.165558,594.788818 
	C362.567627,589.348450 371.432983,584.218628 380.649170,579.044373 
	C381.000000,579.750000 381.000000,580.500000 381.000000,581.625000 
z"/>
<path fill="#E1E1E1" opacity="1.000000" stroke="none" 
	d="
M1.000000,119.399994 
	C2.259731,120.844101 3.233171,119.053612 4.066848,118.590919 
	C10.422585,115.063347 16.684296,111.366669 23.028826,107.818367 
	C24.357952,107.075027 25.486481,105.463081 28.770111,106.819679 
	C19.214048,112.435745 10.432388,117.596703 1.325363,122.878830 
	C1.000000,121.933327 1.000000,120.866661 1.000000,119.399994 
z"/>
<path fill="#E1E1E1" opacity="1.000000" stroke="none" 
	d="
M218.562500,0.999999 
	C213.642090,4.253850 208.284180,7.507703 202.926285,10.761556 
	C202.645020,10.309027 202.363754,9.856499 202.082489,9.403970 
	C204.519958,5.339586 210.249161,5.358346 212.394257,1.210173 
	C214.041672,1.000000 216.083328,1.000000 218.562500,0.999999 
z"/>
<path fill="#DEDEDE" opacity="1.000000" stroke="none" 
	d="
M163.428467,701.000000 
	C168.069931,697.155396 173.524811,694.054443 179.601013,692.111877 
	C176.776581,696.236084 171.644012,697.036438 168.691132,700.726074 
	C167.285645,701.000000 165.571289,701.000000 163.428467,701.000000 
z"/>
<path fill="#E6E6E6" opacity="1.000000" stroke="none" 
	d="
M1.000000,95.375000 
	C2.300369,96.851448 3.205834,94.984871 4.060751,94.530983 
	C8.223126,92.321121 12.297976,89.946411 16.770790,88.226479 
	C12.483414,92.694061 6.889197,95.174843 1.351942,98.130157 
	C1.000000,97.250000 1.000000,96.500000 1.000000,95.375000 
z"/>
<path fill="#DEDEDE" opacity="1.000000" stroke="none" 
	d="
M381.000000,605.666687 
	C375.251221,607.643250 370.921356,612.233154 365.239655,614.015686 
	C364.953339,613.550537 364.667023,613.085388 364.380737,612.620239 
	C369.738739,609.540710 375.096771,606.461243 380.727386,603.690857 
	C381.000000,604.444458 381.000000,604.888916 381.000000,605.666687 
z"/>
<path fill="#E2E2E2" opacity="1.000000" stroke="none" 
	d="
M381.000000,135.625000 
	C375.810028,137.129898 372.053741,141.560242 366.633759,142.265488 
	C370.565979,138.229996 375.784454,136.216965 380.660614,133.087677 
	C381.000000,133.750000 381.000000,134.500000 381.000000,135.625000 
z"/>
<path fill="#E3E3E3" opacity="1.000000" stroke="none" 
	d="
M1.000000,565.375000 
	C2.749956,566.688904 3.758831,564.668213 4.924694,564.085205 
	C8.225718,562.434570 11.411401,560.553162 15.028757,559.410461 
	C11.231476,563.413635 6.300370,565.671448 1.336192,568.187012 
	C1.000000,567.250000 1.000000,566.500000 1.000000,565.375000 
z"/>
<path fill="#DEDEDE" opacity="1.000000" stroke="none" 
	d="
M1.000000,541.375000 
	C2.122188,543.076416 3.516854,539.885376 4.773650,541.362366 
	C5.109506,543.559998 2.972544,543.494385 1.370543,544.143799 
	C1.000000,543.250000 1.000000,542.500000 1.000000,541.375000 
z"/>
<path fill="#DEDEDE" opacity="1.000000" stroke="none" 
	d="
M381.000000,159.666672 
	C379.634491,159.222092 377.928375,162.566772 377.143829,160.084473 
	C376.570984,158.271957 379.198242,158.173874 380.719788,157.681091 
	C381.000000,158.444443 381.000000,158.888901 381.000000,159.666672 
z"/>
<path fill="#E5E5E5" opacity="1.000000" stroke="none" 
	d="
M273.030579,391.980499 
	C241.902893,409.973083 211.107788,427.811462 179.891754,445.893707 
	C179.409103,442.638519 181.247726,442.445587 182.397888,441.778442 
	C223.812851,417.757202 265.239227,393.755615 306.686249,369.789734 
	C307.826904,369.130157 309.407745,367.203003 310.435181,368.993805 
	C311.405823,370.685730 308.956360,371.128418 307.855591,371.774963 
	C296.388275,378.510071 284.868469,385.155792 273.030579,391.980499 
z"/>
<path fill="#E6E6E6" opacity="1.000000" stroke="none" 
	d="
M135.127045,442.159546 
	C138.325485,440.324158 141.182556,438.628754 144.093735,437.032013 
	C144.744629,436.675018 145.739883,436.254730 146.153885,437.379700 
	C146.389389,438.019623 146.022354,438.625214 145.344589,438.997620 
	C144.326050,439.557281 143.354584,440.201843 142.348099,440.784363 
	C101.676422,464.322601 61.007446,487.865570 20.312149,511.362885 
	C18.851648,512.206177 17.548700,513.918213 13.970024,512.380432 
	C54.817642,488.702057 94.811440,465.518616 135.127045,442.159546 
z"/>
<path fill="#E5E5E5" opacity="1.000000" stroke="none" 
	d="
M316.758423,591.715027 
	C276.036438,615.311768 235.625458,638.715637 195.160873,662.026489 
	C193.698593,662.868896 191.661087,665.614807 190.278091,663.314636 
	C189.293579,661.677185 192.502655,660.943909 193.936996,660.110352 
	C234.743301,636.394165 275.591675,612.750366 316.433472,589.095276 
	C317.008698,588.762085 317.555969,588.348267 318.171814,588.125366 
	C319.005493,587.823608 319.962738,586.569214 320.745392,587.770691 
	C321.738037,589.294617 320.094543,589.649963 319.206573,590.241150 
	C318.516296,590.700684 317.777649,591.087585 316.758423,591.715027 
z"/>
<path fill="#E5E5E5" opacity="1.000000" stroke="none" 
	d="
M158.875839,532.834229 
	C136.620697,545.655334 114.686760,558.301941 92.752831,570.948608 
	C92.399895,570.337585 92.046959,569.726562 91.694023,569.115479 
	C135.261642,543.877075 178.829254,518.638672 222.396866,493.400208 
	C222.791061,494.065002 223.185257,494.729797 223.579453,495.394592 
	C202.118652,507.816315 180.657852,520.238037 158.875839,532.834229 
z"/>
<path fill="#E5E5E5" opacity="1.000000" stroke="none" 
	d="
M119.806282,228.750565 
	C81.552483,250.827896 43.606869,272.707275 5.661252,294.586670 
	C5.344586,294.085144 5.027919,293.583618 4.711252,293.082092 
	C14.936571,286.169312 25.984098,280.518555 36.584877,274.197876 
	C47.561962,267.652863 58.692791,261.365662 69.756203,254.965393 
	C80.675949,248.648254 91.592529,242.325623 102.515915,236.014771 
	C113.430443,229.709045 124.351685,223.414932 135.269989,217.115738 
	C135.655304,217.770279 136.040604,218.424820 136.425919,219.079361 
	C130.988770,222.237122 125.551613,225.394867 119.806282,228.750565 
z"/>
<path fill="#E5E5E5" opacity="1.000000" stroke="none" 
	d="
M257.868408,273.912598 
	C296.739502,251.489914 335.277374,229.218292 373.836975,206.984421 
	C374.131470,206.814621 374.722870,207.159698 375.730774,208.414322 
	C332.082977,233.604034 288.435150,258.793732 244.787323,283.983459 
	C244.499023,283.502502 244.210709,283.021545 243.922394,282.540619 
	C247.951599,278.948120 253.118637,277.072174 257.868408,273.912598 
z"/>
<path fill="#E4E4E4" opacity="1.000000" stroke="none" 
	d="
M254.924850,103.878098 
	C216.474167,126.120399 178.349442,148.194809 140.225037,170.269760 
	C139.506287,170.685928 138.799194,171.122940 138.072205,171.524017 
	C137.342651,171.926544 136.465317,172.397888 135.977707,171.370239 
	C135.542160,170.452301 136.307037,169.853989 137.033386,169.399567 
	C137.737503,168.959015 138.456848,168.542221 139.176422,168.127014 
	C180.357544,144.366196 221.536392,120.601456 262.736023,96.872795 
	C263.927551,96.186523 264.960205,94.834824 267.652435,95.633339 
	C263.805908,99.494026 259.123657,101.045158 254.924850,103.878098 
z"/>
<path fill="#E4E4E4" opacity="1.000000" stroke="none" 
	d="
M189.158279,561.202515 
	C207.494766,550.633667 225.511734,540.244324 244.281952,529.420593 
	C242.460312,533.567200 117.393654,606.275940 112.531456,605.482605 
	C137.967224,590.782410 163.402985,576.082153 189.158279,561.202515 
z"/>
<path fill="#E4E4E4" opacity="1.000000" stroke="none" 
	d="
M139.190887,319.138245 
	C120.080528,330.158234 101.299431,341.014435 82.037331,352.148682 
	C83.257973,348.243164 208.589005,275.371552 213.358551,276.316681 
	C188.745743,290.535950 164.132935,304.755219 139.190887,319.138245 
z"/>
<path fill="#E2E2E2" opacity="1.000000" stroke="none" 
	d="
M138.832764,90.894386 
	C159.387711,79.027092 179.609222,67.312828 199.830750,55.598560 
	C200.185730,56.222816 200.540726,56.847076 200.895721,57.471333 
	C157.317017,82.710228 113.738312,107.949127 70.159615,133.188019 
	C69.852501,132.692307 69.545380,132.196594 69.238266,131.700882 
	C76.192802,126.518959 84.100227,122.785332 91.514626,118.319046 
	C99.340767,113.604729 107.332176,109.165230 115.238647,104.583702 
	C123.000549,100.085976 130.746445,95.560631 138.832764,90.894386 
z"/>
<path fill="#E1E1E1" opacity="1.000000" stroke="none" 
	d="
M262.465637,349.424561 
	C227.867355,369.471344 193.577988,389.317688 158.619827,409.551086 
	C160.187119,405.431122 285.623413,332.588074 291.139587,332.805206 
	C280.955994,338.699890 271.865265,343.962006 262.465637,349.424561 
z"/>
<path fill="#E1E1E1" opacity="1.000000" stroke="none" 
	d="
M168.744995,27.699627 
	C128.643478,50.925205 88.841728,73.938095 49.039982,96.950981 
	C48.687019,96.334709 48.334057,95.718437 47.981094,95.102158 
	C91.590691,69.846939 135.200287,44.591721 178.809891,19.336502 
	C178.833939,22.722466 176.342651,23.052246 174.632416,24.200785 
	C172.841797,25.403296 170.913116,26.400183 168.744995,27.699627 
z"/>
<path fill="#E1E1E1" opacity="1.000000" stroke="none" 
	d="
M206.720703,301.777710 
	C212.082626,298.730713 217.117493,295.850891 222.174271,293.010101 
	C222.347763,292.912659 222.741135,293.206543 224.584702,293.913208 
	C180.040314,319.718353 136.409180,344.994446 92.778053,370.270538 
	C92.406403,369.655579 92.034752,369.040619 91.663101,368.425659 
	C104.193642,361.165161 116.726021,353.907806 129.254242,346.643280 
	C142.179825,339.148346 155.097427,331.639679 168.025757,324.149475 
	C180.811508,316.741913 193.606323,309.349945 206.720703,301.777710 
z"/>
<path fill="#E1E1E1" opacity="1.000000" stroke="none" 
	d="
M299.682251,574.749512 
	C302.730225,572.985413 305.450867,571.387939 308.187164,569.817688 
	C308.854980,569.434448 309.613647,568.625732 310.330414,569.596985 
	C311.333191,570.955994 309.787994,571.209167 309.169189,571.751770 
	C308.557678,572.287903 307.745605,572.593445 307.026886,573.009460 
	C266.047791,596.729553 225.073212,620.457520 184.072418,644.139954 
	C182.776764,644.888367 181.638870,646.530884 178.351227,645.009033 
	C219.217773,621.341125 259.289246,598.133606 299.682251,574.749512 
z"/>
<path fill="#E3E3E3" opacity="1.000000" stroke="none" 
	d="
M219.094360,173.053009 
	C198.363831,185.016098 177.966599,196.827194 157.569382,208.638290 
	C157.216782,208.021225 156.864197,207.404175 156.511597,206.787109 
	C200.082916,181.549377 243.654236,156.311661 287.225555,131.073929 
	C287.583923,131.646683 287.942291,132.219421 288.300629,132.792160 
	C280.852203,137.166901 273.416382,141.563263 265.951874,145.910416 
	C258.205841,150.421524 250.426239,154.874939 242.672073,159.372116 
	C234.917007,163.869812 227.175247,168.390442 219.094360,173.053009 
z"/>
<path fill="#E2E2E2" opacity="1.000000" stroke="none" 
	d="
M179.857040,268.893921 
	C187.290253,264.621368 194.392166,260.503845 202.204300,255.974548 
	C200.494827,260.230042 75.135818,332.918121 69.858887,332.627869 
	C107.052567,311.064941 143.289139,290.056915 179.857040,268.893921 
z"/>
<path fill="#E1E1E1" opacity="1.000000" stroke="none" 
	d="
M255.610596,127.576141 
	C219.166672,148.690262 183.020584,169.590408 146.163452,190.901672 
	C146.299530,187.588837 148.185150,187.279846 149.447861,186.547684 
	C190.711533,162.621506 231.994934,138.729355 273.274597,114.830795 
	C273.562775,114.663963 273.818695,114.408951 274.126343,114.314171 
	C275.112091,114.010506 276.200439,112.413116 277.091522,113.890984 
	C278.015839,115.423943 276.128418,115.624100 275.314636,116.103905 
	C268.872742,119.902161 262.383270,123.619766 255.610596,127.576141 
z"/>
<path fill="#E3E3E3" opacity="1.000000" stroke="none" 
	d="
M55.033264,466.985016 
	C38.306263,476.636047 21.911860,486.132965 5.517457,495.629852 
	C5.164659,495.008881 4.811862,494.387939 4.459064,493.766968 
	C48.043819,468.525543 91.628571,443.284119 135.213318,418.042694 
	C135.570770,418.650452 135.928207,419.258240 136.285645,419.865997 
	C109.312386,435.520966 82.339119,451.175903 55.033264,466.985016 
z"/>
<path fill="#E3E3E3" opacity="1.000000" stroke="none" 
	d="
M212.837173,525.790344 
	C177.611298,546.185547 142.703659,566.398987 107.795319,586.611145 
	C106.790588,587.192932 105.770447,587.748413 104.772629,588.341675 
	C104.035194,588.780090 103.292221,589.259094 102.777725,588.120789 
	C102.401962,587.289429 103.120155,586.914062 103.636009,586.571411 
	C104.601013,585.930420 105.623398,585.375183 106.627319,584.793640 
	C147.419998,561.160339 188.207397,537.517944 229.031570,513.939270 
	C230.443558,513.123779 231.706863,511.214478 234.855438,512.952515 
	C227.272964,517.374756 220.214127,521.491577 212.837173,525.790344 
z"/>
<path fill="#E3E3E3" opacity="1.000000" stroke="none" 
	d="
M284.703644,462.650818 
	C271.842987,470.098236 259.281006,477.333649 246.718994,484.569061 
	C246.372986,483.963654 246.026962,483.358276 245.680939,482.752869 
	C289.237213,457.521790 332.793488,432.290680 376.349762,407.059601 
	C376.714722,407.678619 377.079681,408.297638 377.444611,408.916687 
	C346.630493,426.757385 315.816376,444.598114 284.703644,462.650818 
z"/>
<path fill="#E1E1E1" opacity="1.000000" stroke="none" 
	d="
M202.787537,681.805542 
	C201.134811,682.268555 199.725754,682.314331 201.029160,680.480469 
	C201.736435,679.485352 203.205887,679.018005 204.354736,678.352600 
	C245.066071,654.774719 285.775726,631.193848 326.511902,607.658997 
	C327.979736,606.810974 329.297150,605.111755 332.671631,606.540649 
	C288.990143,631.857849 246.048950,656.745911 202.787537,681.805542 
z"/>
<path fill="#E3E3E3" opacity="1.000000" stroke="none" 
	d="
M95.443420,489.485962 
	C115.905716,477.628967 136.069336,465.986176 156.232941,454.343384 
	C156.581940,454.951080 156.930939,455.558746 157.279938,456.166443 
	C113.702461,481.411804 70.124969,506.657166 26.602694,531.870544 
	C26.216000,531.382324 26.089403,531.263428 26.015707,531.117859 
	C25.942297,530.972839 25.860332,530.787842 25.891132,530.643677 
	C25.956112,530.339478 26.003616,529.898132 26.211884,529.776855 
	C49.180317,516.402222 72.162926,503.051849 95.443420,489.485962 
z"/>
<path fill="#E3E3E3" opacity="1.000000" stroke="none" 
	d="
M178.062561,420.106140 
	C218.741257,396.571808 259.092804,373.201538 299.936829,349.545990 
	C298.788086,353.080719 176.350418,424.937683 168.619095,425.757904 
	C171.657867,423.928650 174.696625,422.099396 178.062561,420.106140 
z"/>
<path fill="#E2E2E2" opacity="1.000000" stroke="none" 
	d="
M117.248611,79.289490 
	C141.490204,65.252319 165.430695,51.425861 189.371185,37.599400 
	C189.724030,38.208607 190.076874,38.817818 190.429718,39.427029 
	C146.853516,64.673798 103.277321,89.920563 59.701122,115.167336 
	C59.335201,114.552895 58.969280,113.938461 58.603359,113.324028 
	C78.051407,102.049416 97.499458,90.774811 117.248611,79.289490 
z"/>
<path fill="#E3E3E3" opacity="1.000000" stroke="none" 
	d="
M245.794449,256.838074 
	C285.499115,233.859970 324.875610,211.047119 364.252075,188.234268 
	C364.610382,188.860367 364.968689,189.486481 365.326996,190.112579 
	C321.728760,215.356949 278.130493,240.601318 234.532242,265.845703 
	C234.165771,265.255646 233.799286,264.665588 233.432816,264.075531 
	C237.443954,261.718140 241.455109,259.360748 245.794449,256.838074 
z"/>
<path fill="#E3E3E3" opacity="1.000000" stroke="none" 
	d="
M346.659912,176.603302 
	C305.495087,200.451141 264.631744,224.082397 223.768417,247.713638 
	C223.415421,247.099808 223.062424,246.485977 222.709427,245.872147 
	C266.270966,220.643402 309.832489,195.414642 353.394043,170.185898 
	C352.604034,174.120087 349.344147,174.693329 346.659912,176.603302 
z"/>
<path fill="#E5E5E5" opacity="1.000000" stroke="none" 
	d="
M267.887970,168.847595 
	C234.337372,188.272522 201.104858,207.515884 167.872345,226.759262 
	C167.519073,226.139526 167.165802,225.519806 166.812515,224.900070 
	C210.404282,199.659485 253.996048,174.418900 297.587799,149.178314 
	C297.938690,149.767258 298.289581,150.356201 298.640472,150.945129 
	C288.495667,156.852112 278.350861,162.759094 267.887970,168.847595 
z"/>
<path fill="#E7E7E7" opacity="1.000000" stroke="none" 
	d="
M223.375000,221.401627 
	C263.504150,198.147583 303.337036,175.111084 343.169922,152.074585 
	C343.518341,152.683624 343.866730,153.292648 344.215149,153.901688 
	C300.639069,179.134125 257.062988,204.366577 213.486893,229.599014 
	C213.199158,229.140533 212.911423,228.682068 212.623688,228.223587 
	C215.566544,225.255463 219.647491,223.896667 223.375000,221.401627 
z"/>
<path fill="#E5E5E5" opacity="1.000000" stroke="none" 
	d="
M169.303772,379.262451 
	C162.355576,383.206512 155.729858,386.975159 149.083694,390.707367 
	C148.925201,390.796356 148.537888,390.477905 146.969421,389.760132 
	C191.265396,364.129822 234.854416,338.908569 278.443451,313.687317 
	C278.798401,314.267975 279.153381,314.848663 279.508362,315.429352 
	C267.444214,322.423584 255.380600,329.418701 243.315765,336.411774 
	C231.108582,343.487427 218.902069,350.564209 206.691711,357.634399 
	C194.337967,364.787628 181.979904,371.933472 169.303772,379.262451 
z"/>
<path fill="#E4E4E4" opacity="1.000000" stroke="none" 
	d="
M267.637756,416.699097 
	C285.408142,406.409790 302.861359,396.305664 320.314575,386.201538 
	C320.646576,386.780823 320.978546,387.360107 321.310547,387.939392 
	C277.759827,413.169647 234.209091,438.399902 190.658356,463.630127 
	C190.314804,463.044373 189.971252,462.458618 189.627701,461.872864 
	C215.525345,446.876678 241.423004,431.880524 267.637756,416.699097 
z"/>
<path fill="#E4E4E4" opacity="1.000000" stroke="none" 
	d="
M207.541473,325.586334 
	C216.340958,320.514008 224.831711,315.642639 233.322464,310.771240 
	C233.624008,311.311737 233.925552,311.852234 234.227097,312.392731 
	C190.622635,337.660889 147.018158,362.929016 103.413704,388.197144 
	C103.049187,387.577148 102.684677,386.957153 102.320160,386.337189 
	C137.291016,366.153900 172.261887,345.970581 207.541473,325.586334 
z"/>
<path fill="#E5E5E5" opacity="1.000000" stroke="none" 
	d="
M178.184784,594.131714 
	C160.009628,604.627991 142.172195,614.979187 123.287239,625.938232 
	C125.697403,621.551270 250.586136,549.089844 255.060089,549.555115 
	C229.547562,564.365601 204.035034,579.176086 178.184784,594.131714 
z"/>
<path fill="#E3E3E3" opacity="1.000000" stroke="none" 
	d="
M144.521484,514.559753 
	C167.265289,501.368103 189.705902,488.386780 212.146515,475.405457 
	C212.481018,475.988464 212.815536,476.571442 213.150055,477.154419 
	C169.609085,502.374054 126.068123,527.593689 82.527153,552.813354 
	C82.184731,552.233521 81.842308,551.653687 81.499878,551.073853 
	C102.406013,538.972595 123.312141,526.871338 144.521484,514.559753 
z"/>
<path fill="#E3E3E3" opacity="1.000000" stroke="none" 
	d="
M219.234650,100.187439 
	C187.892578,118.325851 156.875916,136.295624 125.859253,154.265411 
	C125.522903,153.680191 125.186554,153.094955 124.850204,152.509735 
	C168.468735,127.273361 212.087280,102.036995 255.705811,76.800621 
	C255.979813,77.214211 256.253784,77.627808 256.527802,78.041397 
	C253.205826,81.187889 248.831619,82.884415 244.957199,85.249908 
	C240.708344,87.844040 236.371490,90.294388 232.065308,92.794212 
	C227.901947,95.211128 223.728867,97.611290 219.234650,100.187439 
z"/>
<path fill="#E3E3E3" opacity="1.000000" stroke="none" 
	d="
M182.708191,620.658569 
	C178.135010,623.295166 173.861938,625.721802 169.588867,628.148499 
	C169.268463,627.591797 168.948059,627.035095 168.627640,626.478333 
	C212.219467,601.247437 255.811295,576.016479 299.403137,550.785522 
	C299.735718,551.350647 300.068298,551.915710 300.400879,552.480835 
	C261.270020,575.136780 222.139175,597.792725 182.708191,620.658569 
z"/>
<path fill="#E3E3E3" opacity="1.000000" stroke="none" 
	d="
M104.225891,135.264206 
	C139.814117,114.653618 175.098038,94.248230 210.381943,73.842850 
	C210.715256,74.415756 211.048569,74.988670 211.381882,75.561584 
	C167.779160,100.797905 124.176445,126.034218 80.573723,151.270538 
	C80.235718,150.718323 79.897713,150.166092 79.559708,149.613876 
	C87.680321,144.899048 95.800941,140.184219 104.225891,135.264206 
z"/>
<path fill="#E4E4E4" opacity="1.000000" stroke="none" 
	d="
M128.106079,277.057556 
	C105.691643,290.002045 83.611229,302.795166 61.530819,315.588318 
	C61.195343,315.008240 60.859867,314.428162 60.524391,313.848083 
	C104.066452,288.654785 147.608521,263.461487 191.150589,238.268173 
	C191.473297,238.815598 191.796005,239.363022 192.118713,239.910461 
	C170.892517,252.242371 149.666306,264.574280 128.106079,277.057556 
z"/>
<path fill="#E3E3E3" opacity="1.000000" stroke="none" 
	d="
M359.194275,395.160461 
	C317.920807,419.048706 276.973969,442.772247 236.027145,466.495819 
	C235.689148,465.907623 235.351151,465.319427 235.013153,464.731262 
	C278.600891,439.517853 322.188629,414.304474 365.776337,389.091095 
	C366.024139,389.489655 366.271942,389.888245 366.519745,390.286804 
	C364.724701,392.580933 361.799896,393.353485 359.194275,395.160461 
z"/>
<path fill="#E4E4E4" opacity="1.000000" stroke="none" 
	d="
M39.701859,296.747345 
	C75.254875,276.160217 110.486771,255.750824 145.718674,235.341431 
	C146.049500,235.921021 146.380310,236.500610 146.711136,237.080200 
	C103.397263,262.081268 60.269577,287.407532 16.756998,312.061584 
	C16.460558,311.546844 16.164116,311.032104 15.867676,310.517365 
	C23.705362,305.986603 31.543049,301.455841 39.701859,296.747345 
z"/>
<path fill="#E2E2E2" opacity="1.000000" stroke="none" 
	d="
M98.170784,512.223022 
	C121.223763,498.886688 143.961975,485.738098 166.700180,472.589508 
	C167.014450,473.137146 167.328705,473.684784 167.642975,474.232422 
	C124.071114,499.481537 80.499245,524.730652 36.927383,549.979797 
	C36.600822,549.425110 36.274258,548.870361 35.947693,548.315613 
	C56.583801,536.347351 77.219910,524.379028 98.170784,512.223022 
z"/>
</svg>